<svg width="211" height="458" viewBox="0 0 211 458" fill="none" xmlns="http://www.w3.org/2000/svg">
<g clip-path="url(#clip0_931_1442)">
<rect width="211" height="458" fill="white" fill-opacity="0.2"/>
<path d="M211 458H0V0H211V458ZM13 57V241H197V57H13Z" fill="black"/>
<path d="M144.457 368.711V367.93H149.789V368.711H147.572V375H146.684V368.711H144.457ZM152.25 375.107C150.805 375.112 149.828 374.019 149.828 372.373C149.828 370.718 150.805 369.629 152.25 369.629C153.69 369.629 154.657 370.718 154.652 372.373C154.657 374.019 153.69 375.112 152.25 375.107ZM150.668 372.373C150.673 373.433 151.171 374.365 152.25 374.365C153.319 374.365 153.812 373.433 153.812 372.373C153.812 371.318 153.319 370.371 152.25 370.371C151.171 370.371 150.673 371.318 150.668 372.373ZM157.758 375.107C156.435 375.112 155.502 374.048 155.502 372.363C155.502 370.684 156.435 369.629 157.768 369.629C158.798 369.629 159.12 370.254 159.301 370.537H159.359V367.93H160.209V375H159.389V374.189H159.301C159.115 374.482 158.769 375.112 157.758 375.107ZM156.352 372.344C156.352 373.472 156.869 374.355 157.875 374.355C158.847 374.355 159.384 373.535 159.389 372.344C159.384 371.167 158.861 370.381 157.875 370.381C156.854 370.381 156.352 371.235 156.352 372.344ZM161.41 373.496C161.41 372.28 162.484 372.002 163.402 371.934C163.744 371.909 164.599 371.86 164.838 371.855V371.426C164.838 370.752 164.438 370.361 163.637 370.361C162.968 370.361 162.562 370.669 162.445 371.074H161.566C161.674 370.22 162.504 369.629 163.676 369.629C164.369 369.629 165.673 369.834 165.668 371.504V375H164.838V374.277H164.799C164.623 374.634 164.14 375.122 163.217 375.127C162.211 375.122 161.41 374.531 161.41 373.496ZM162.25 373.535C162.255 374.097 162.719 374.38 163.363 374.375C164.311 374.38 164.838 373.745 164.838 373.076V372.544C164.589 372.559 163.754 372.622 163.5 372.637C162.738 372.686 162.255 372.954 162.25 373.535ZM167.357 376.992C167.177 376.987 166.996 376.982 166.889 376.973V376.221C166.977 376.23 167.167 376.235 167.299 376.24C167.641 376.235 167.929 376.216 168.207 375.439L168.363 375.039L166.4 369.697H167.318L168.764 373.906H168.822L170.268 369.697H171.186L168.939 375.762C168.627 376.597 168.109 376.987 167.357 376.992ZM172.826 367.93V370.371H172.055V367.93H172.826ZM177.074 371.074C176.957 370.635 176.62 370.347 176 370.342C175.346 370.347 174.882 370.698 174.877 371.143C174.882 371.494 175.165 371.733 175.785 371.885L176.576 372.08C177.523 372.305 177.987 372.778 177.992 373.516C177.987 374.434 177.24 375.112 175.912 375.107C174.721 375.112 174.013 374.58 173.871 373.613H174.75C174.848 374.131 175.224 374.38 175.893 374.375C176.649 374.38 177.123 374.062 177.123 373.564C177.123 373.188 176.854 372.944 176.254 372.803L175.453 372.617C174.53 372.402 174.037 371.899 174.037 371.191C174.037 370.283 174.833 369.629 176 369.629C177.099 369.629 177.787 370.215 177.895 371.074H177.074ZM182.016 375H181.098L183.686 367.93H184.613L187.201 375H186.273L185.565 373.008H182.724L182.016 375ZM182.992 372.236H185.297L184.174 369.072H184.115L182.992 372.236ZM188.051 375V369.697H188.861V370.508H188.92C189.11 369.971 189.662 369.614 190.287 369.609C190.414 369.614 190.629 369.619 190.727 369.629V370.479C190.663 370.464 190.438 370.42 190.219 370.42C189.457 370.42 188.891 370.947 188.891 371.66V375H188.051ZM193.549 375.107C192.045 375.112 191.127 373.965 191.127 372.373C191.127 370.762 192.089 369.629 193.529 369.629C194.657 369.629 195.507 370.298 195.639 371.299H194.799C194.677 370.815 194.257 370.371 193.549 370.371C192.602 370.371 191.972 371.152 191.967 372.344C191.972 373.569 192.587 374.355 193.549 374.355C194.174 374.355 194.652 374.019 194.799 373.438H195.639C195.507 374.385 194.726 375.112 193.549 375.107ZM147.387 382.93H148.441L150.824 388.75H150.912L153.295 382.93H154.35V390H153.52V384.658H153.451L151.254 390H150.473L148.275 384.658H148.217V390H147.387V382.93ZM160.736 385.156C160.531 384.18 159.696 383.652 158.764 383.652C157.484 383.652 156.493 384.639 156.488 386.465C156.493 388.286 157.484 389.272 158.764 389.277C159.696 389.272 160.526 388.75 160.736 387.783H161.615C161.361 389.229 160.199 390.098 158.764 390.098C156.947 390.098 155.634 388.701 155.639 386.465C155.634 384.229 156.947 382.832 158.764 382.832C160.194 382.832 161.352 383.687 161.615 385.156H160.736ZM162.846 382.93H163.9L166.283 388.75H166.371L168.754 382.93H169.809V390H168.979V384.658H168.91L166.713 390H165.932L163.734 384.658H163.676V390H162.846V382.93ZM173.881 390V382.93H174.76V386.074H178.5V382.93H179.389V390H178.5V386.846H174.76V390H173.881ZM180.58 388.496C180.58 387.28 181.654 387.002 182.572 386.934C182.914 386.909 183.769 386.86 184.008 386.855V386.426C184.008 385.752 183.607 385.361 182.807 385.361C182.138 385.361 181.732 385.669 181.615 386.074H180.736C180.844 385.22 181.674 384.629 182.846 384.629C183.539 384.629 184.843 384.834 184.838 386.504V390H184.008V389.277H183.969C183.793 389.634 183.31 390.122 182.387 390.127C181.381 390.122 180.58 389.531 180.58 388.496ZM181.42 388.535C181.425 389.097 181.889 389.38 182.533 389.375C183.48 389.38 184.008 388.745 184.008 388.076V387.544C183.759 387.559 182.924 387.622 182.67 387.637C181.908 387.686 181.425 387.954 181.42 388.535ZM189.535 387.822V384.697H190.365V390H189.535V389.102H189.477C189.228 389.639 188.7 390.068 187.904 390.068C186.898 390.068 186.181 389.414 186.186 388.066V384.697H187.025V388.008C187.025 388.77 187.499 389.263 188.178 389.258C188.778 389.263 189.53 388.813 189.535 387.822ZM194.662 386.074C194.545 385.635 194.208 385.347 193.588 385.342C192.934 385.347 192.47 385.698 192.465 386.143C192.47 386.494 192.753 386.733 193.373 386.885L194.164 387.08C195.111 387.305 195.575 387.778 195.58 388.516C195.575 389.434 194.828 390.112 193.5 390.107C192.309 390.112 191.601 389.58 191.459 388.613H192.338C192.436 389.131 192.812 389.38 193.48 389.375C194.237 389.38 194.711 389.062 194.711 388.564C194.711 388.188 194.442 387.944 193.842 387.803L193.041 387.617C192.118 387.402 191.625 386.899 191.625 386.191C191.625 385.283 192.421 384.629 193.588 384.629C194.687 384.629 195.375 385.215 195.482 386.074H194.662ZM148.793 405H147.875L150.463 397.93H151.391L153.979 405H153.051L152.343 403.008H149.501L148.793 405ZM149.77 402.236H152.074L150.951 399.072H150.893L149.77 402.236ZM154.828 406.992V399.697H155.639V400.537H155.736C155.917 400.254 156.239 399.629 157.27 399.629C158.603 399.629 159.525 400.684 159.525 402.363C159.525 404.048 158.603 405.112 157.279 405.107C156.269 405.112 155.917 404.482 155.736 404.189H155.668V406.992H154.828ZM155.648 402.344C155.653 403.535 156.186 404.355 157.162 404.355C158.168 404.355 158.686 403.472 158.686 402.344C158.686 401.235 158.183 400.381 157.162 400.381C156.171 400.381 155.653 401.167 155.648 402.344ZM162.768 407.1C161.483 407.1 160.614 406.538 160.521 405.557H161.4C161.513 406.099 162.016 406.367 162.768 406.367C163.676 406.367 164.232 405.972 164.232 405.098V404.023H164.164C163.983 404.316 163.646 404.917 162.621 404.922C161.332 404.917 160.365 403.945 160.365 402.275C160.365 400.645 161.298 399.629 162.631 399.629C163.661 399.629 163.993 400.254 164.184 400.537H164.252V399.697H165.072V405.146C165.067 406.514 164.062 407.1 162.768 407.1ZM161.215 402.305C161.215 403.403 161.732 404.17 162.738 404.17C163.71 404.17 164.247 403.472 164.252 402.305C164.247 401.167 163.725 400.381 162.738 400.381C161.718 400.381 161.215 401.235 161.215 402.305ZM169.76 402.822V399.697H170.59V405H169.76V404.102H169.701C169.452 404.639 168.925 405.068 168.129 405.068C167.123 405.068 166.405 404.414 166.41 403.066V399.697H167.25V403.008C167.25 403.77 167.724 404.263 168.402 404.258C169.003 404.263 169.755 403.813 169.76 402.822ZM171.938 399.697H172.777V405.381C172.777 406.372 172.265 406.987 171.234 406.992C171.181 406.987 171.127 406.987 171.059 406.992V406.211C171.117 406.216 171.166 406.216 171.225 406.211C171.713 406.216 171.933 405.913 171.938 405.381V399.697ZM171.762 398.262C171.757 397.949 172.025 397.7 172.348 397.705C172.67 397.7 172.938 397.949 172.943 398.262C172.938 398.569 172.67 398.818 172.348 398.818C172.025 398.818 171.757 398.569 171.762 398.262ZM176.342 405.107C174.809 405.112 173.861 404.019 173.861 402.393C173.861 400.762 174.823 399.629 176.264 399.629C177.377 399.629 178.554 400.312 178.549 402.275V402.627H174.701C174.745 403.75 175.399 404.365 176.342 404.365C176.977 404.365 177.377 404.087 177.572 403.76H178.471C178.222 404.565 177.436 405.112 176.342 405.107ZM174.706 401.914H177.699C177.694 401.03 177.138 400.371 176.264 400.371C175.346 400.371 174.765 401.094 174.706 401.914ZM181.811 405.107C180.365 405.112 179.389 404.019 179.389 402.373C179.389 400.718 180.365 399.629 181.811 399.629C183.251 399.629 184.218 400.718 184.213 402.373C184.218 404.019 183.251 405.112 181.811 405.107ZM180.229 402.373C180.233 403.433 180.731 404.365 181.811 404.365C182.88 404.365 183.373 403.433 183.373 402.373C183.373 401.318 182.88 400.371 181.811 400.371C180.731 400.371 180.233 401.318 180.229 402.373ZM186.156 401.816V405H185.316V399.697H186.127V400.527H186.195C186.444 399.985 186.942 399.629 187.748 399.629C188.822 399.629 189.54 400.283 189.535 401.631V405H188.695V401.689C188.695 400.869 188.246 400.381 187.494 400.381C186.723 400.381 186.156 400.898 186.156 401.816ZM193.031 407.1C191.747 407.1 190.878 406.538 190.785 405.557H191.664C191.776 406.099 192.279 406.367 193.031 406.367C193.939 406.367 194.496 405.972 194.496 405.098V404.023H194.428C194.247 404.316 193.91 404.917 192.885 404.922C191.596 404.917 190.629 403.945 190.629 402.275C190.629 400.645 191.562 399.629 192.895 399.629C193.925 399.629 194.257 400.254 194.447 400.537H194.516V399.697H195.336V405.146C195.331 406.514 194.325 407.1 193.031 407.1ZM191.479 402.305C191.479 403.403 191.996 404.17 193.002 404.17C193.974 404.17 194.511 403.472 194.516 402.305C194.511 401.167 193.988 400.381 193.002 400.381C191.981 400.381 191.479 401.235 191.479 402.305ZM147.113 420L147.104 419.355L149.516 416.816C150.351 415.928 150.751 415.449 150.756 414.795C150.751 414.067 150.146 413.599 149.35 413.594C148.505 413.599 147.978 414.131 147.973 414.922H147.143C147.133 413.672 148.1 412.832 149.379 412.832C150.663 412.832 151.571 413.696 151.576 414.795C151.571 415.586 151.205 416.201 149.955 417.49L148.334 419.16V419.219H151.703V420H147.113ZM155.297 420.098C153.729 420.098 152.821 418.779 152.826 416.465C152.821 414.17 153.739 412.832 155.297 412.832C156.85 412.832 157.768 414.17 157.768 416.465C157.768 418.779 156.864 420.098 155.297 420.098ZM153.676 416.465C153.681 418.296 154.271 419.316 155.297 419.316C156.317 419.316 156.913 418.296 156.908 416.465C156.913 414.634 156.312 413.599 155.297 413.594C154.281 413.599 153.681 414.634 153.676 416.465ZM158.939 420L158.93 419.355L161.342 416.816C162.177 415.928 162.577 415.449 162.582 414.795C162.577 414.067 161.972 413.599 161.176 413.594C160.331 413.599 159.804 414.131 159.799 414.922H158.969C158.959 413.672 159.926 412.832 161.205 412.832C162.489 412.832 163.397 413.696 163.402 414.795C163.397 415.586 163.031 416.201 161.781 417.49L160.16 419.16V419.219H163.529V420H158.939ZM167.27 420.098C166.044 420.083 164.691 419.355 164.691 416.738C164.691 414.233 165.717 412.832 167.377 412.832C168.622 412.832 169.491 413.599 169.672 414.707H168.803C168.642 414.082 168.163 413.613 167.377 413.613C166.215 413.613 165.517 414.604 165.521 416.309H165.609C166.015 415.718 166.664 415.371 167.426 415.371C168.681 415.371 169.73 416.348 169.73 417.715C169.73 419.048 168.759 420.112 167.27 420.098ZM165.639 417.734C165.644 418.564 166.322 419.321 167.27 419.326C168.183 419.321 168.876 418.604 168.881 417.725C168.876 416.855 168.212 416.147 167.289 416.143C166.361 416.147 165.648 416.899 165.639 417.734ZM171.215 420.059C170.873 420.054 170.58 419.771 170.59 419.424C170.58 419.082 170.873 418.799 171.215 418.799C171.562 418.799 171.845 419.082 171.84 419.424C171.845 419.771 171.562 420.054 171.215 420.059ZM175.219 420.098C173.651 420.098 172.743 418.779 172.748 416.465C172.743 414.17 173.661 412.832 175.219 412.832C176.771 412.832 177.689 414.17 177.689 416.465C177.689 418.779 176.786 420.098 175.219 420.098ZM173.598 416.465C173.603 418.296 174.193 419.316 175.219 419.316C176.239 419.316 176.835 418.296 176.83 416.465C176.835 414.634 176.234 413.599 175.219 413.594C174.203 413.599 173.603 414.634 173.598 416.465ZM181.225 420.098C179.735 420.098 178.71 419.272 178.715 418.125C178.71 417.212 179.345 416.455 180.15 416.328V416.289C179.447 416.128 178.983 415.479 178.988 414.707C178.983 413.628 179.931 412.832 181.225 412.832C182.514 412.832 183.461 413.628 183.471 414.707C183.461 415.479 182.992 416.128 182.299 416.289V416.328C183.1 416.455 183.734 417.212 183.744 418.125C183.734 419.272 182.699 420.098 181.225 420.098ZM179.594 418.076C179.579 418.818 180.209 419.321 181.225 419.326C182.235 419.321 182.865 418.818 182.865 418.076C182.865 417.295 182.177 416.719 181.225 416.719C180.277 416.719 179.579 417.295 179.594 418.076ZM179.838 414.775C179.843 415.488 180.414 415.972 181.225 415.977C182.03 415.972 182.611 415.488 182.611 414.775C182.611 414.067 182.05 413.589 181.225 413.594C180.385 413.589 179.843 414.067 179.838 414.775ZM185.316 420.059C184.975 420.054 184.682 419.771 184.691 419.424C184.682 419.082 184.975 418.799 185.316 418.799C185.663 418.799 185.946 419.082 185.941 419.424C185.946 419.771 185.663 420.054 185.316 420.059ZM188.91 412.93V420H188.021V413.848H187.982L186.264 414.99V414.102L188.021 412.93H188.91ZM190.795 420L190.785 419.355L193.197 416.816C194.032 415.928 194.433 415.449 194.438 414.795C194.433 414.067 193.827 413.599 193.031 413.594C192.187 413.599 191.659 414.131 191.654 414.922H190.824C190.814 413.672 191.781 412.832 193.061 412.832C194.345 412.832 195.253 413.696 195.258 414.795C195.253 415.586 194.887 416.201 193.637 417.49L192.016 419.16V419.219H195.385V420H190.795ZM127.309 427.93V430.371H126.537V427.93H127.309ZM128.305 430.371V427.93H129.076V430.371H128.305ZM135.121 427.93H136V432.607C136 434.062 134.911 435.122 133.246 435.127C131.576 435.122 130.492 434.062 130.492 432.607V427.93H131.371V432.539C131.366 433.564 132.079 434.302 133.246 434.307C134.413 434.302 135.116 433.564 135.121 432.539V427.93ZM137.455 435V429.697H138.266V430.508H138.324C138.515 429.971 139.066 429.614 139.691 429.609C139.818 429.614 140.033 429.619 140.131 429.629V430.479C140.067 430.464 139.843 430.42 139.623 430.42C138.861 430.42 138.295 430.947 138.295 431.66V435H137.455ZM141.059 435V427.93H141.898V430.537H141.967C142.147 430.254 142.465 429.629 143.5 429.629C144.828 429.629 145.761 430.684 145.766 432.363C145.761 434.048 144.828 435.112 143.51 435.107C142.494 435.112 142.147 434.482 141.967 434.189H141.869V435H141.059ZM141.879 432.344C141.879 433.535 142.416 434.355 143.383 434.355C144.394 434.355 144.911 433.472 144.916 432.344C144.911 431.235 144.408 430.381 143.383 430.381C142.406 430.381 141.879 431.167 141.879 432.344ZM146.605 433.496C146.605 432.28 147.68 432.002 148.598 431.934C148.939 431.909 149.794 431.86 150.033 431.855V431.426C150.033 430.752 149.633 430.361 148.832 430.361C148.163 430.361 147.758 430.669 147.641 431.074H146.762C146.869 430.22 147.699 429.629 148.871 429.629C149.564 429.629 150.868 429.834 150.863 431.504V435H150.033V434.277H149.994C149.818 434.634 149.335 435.122 148.412 435.127C147.406 435.122 146.605 434.531 146.605 433.496ZM147.445 433.535C147.45 434.097 147.914 434.38 148.559 434.375C149.506 434.38 150.033 433.745 150.033 433.076V432.544C149.784 432.559 148.949 432.622 148.695 432.637C147.934 432.686 147.45 432.954 147.445 433.535ZM153.051 431.816V435H152.211V429.697H153.021V430.527H153.09C153.339 429.985 153.837 429.629 154.643 429.629C155.717 429.629 156.435 430.283 156.43 431.631V435H155.59V431.689C155.59 430.869 155.141 430.381 154.389 430.381C153.617 430.381 153.051 430.898 153.051 431.816ZM160.395 435V427.93H164.682V428.711H161.273V431.074H164.457V431.846H161.273V434.219H164.73V435H160.395ZM168.91 431.074C168.793 430.635 168.456 430.347 167.836 430.342C167.182 430.347 166.718 430.698 166.713 431.143C166.718 431.494 167.001 431.733 167.621 431.885L168.412 432.08C169.359 432.305 169.823 432.778 169.828 433.516C169.823 434.434 169.076 435.112 167.748 435.107C166.557 435.112 165.849 434.58 165.707 433.613H166.586C166.684 434.131 167.06 434.38 167.729 434.375C168.485 434.38 168.959 434.062 168.959 433.564C168.959 433.188 168.69 432.944 168.09 432.803L167.289 432.617C166.366 432.402 165.873 431.899 165.873 431.191C165.873 430.283 166.669 429.629 167.836 429.629C168.935 429.629 169.623 430.215 169.73 431.074H168.91ZM173.09 435.107C171.586 435.112 170.668 433.965 170.668 432.373C170.668 430.762 171.63 429.629 173.07 429.629C174.198 429.629 175.048 430.298 175.18 431.299H174.34C174.218 430.815 173.798 430.371 173.09 430.371C172.143 430.371 171.513 431.152 171.508 432.344C171.513 433.569 172.128 434.355 173.09 434.355C173.715 434.355 174.193 434.019 174.34 433.438H175.18C175.048 434.385 174.267 435.112 173.09 435.107ZM175.961 433.496C175.961 432.28 177.035 432.002 177.953 431.934C178.295 431.909 179.149 431.86 179.389 431.855V431.426C179.389 430.752 178.988 430.361 178.188 430.361C177.519 430.361 177.113 430.669 176.996 431.074H176.117C176.225 430.22 177.055 429.629 178.227 429.629C178.92 429.629 180.224 429.834 180.219 431.504V435H179.389V434.277H179.35C179.174 434.634 178.69 435.122 177.768 435.127C176.762 435.122 175.961 434.531 175.961 433.496ZM176.801 433.535C176.806 434.097 177.27 434.38 177.914 434.375C178.861 434.38 179.389 433.745 179.389 433.076V432.544C179.14 432.559 178.305 432.622 178.051 432.637C177.289 432.686 176.806 432.954 176.801 433.535ZM181.566 436.992V429.697H182.377V430.537H182.475C182.655 430.254 182.978 429.629 184.008 429.629C185.341 429.629 186.264 430.684 186.264 432.363C186.264 434.048 185.341 435.112 184.018 435.107C183.007 435.112 182.655 434.482 182.475 434.189H182.406V436.992H181.566ZM182.387 432.344C182.392 433.535 182.924 434.355 183.9 434.355C184.906 434.355 185.424 433.472 185.424 432.344C185.424 431.235 184.921 430.381 183.9 430.381C182.909 430.381 182.392 431.167 182.387 432.344ZM189.584 435.107C188.051 435.112 187.104 434.019 187.104 432.393C187.104 430.762 188.065 429.629 189.506 429.629C190.619 429.629 191.796 430.312 191.791 432.275V432.627H187.943C187.987 433.75 188.642 434.365 189.584 434.365C190.219 434.365 190.619 434.087 190.814 433.76H191.713C191.464 434.565 190.678 435.112 189.584 435.107ZM187.948 431.914H190.941C190.937 431.03 190.38 430.371 189.506 430.371C188.588 430.371 188.007 431.094 187.948 431.914ZM193.598 427.93V430.371H192.826V427.93H193.598ZM194.594 430.371V427.93H195.365V430.371H194.594Z" fill="#9D6969"/>
<path d="M60.2908 11.4406C53.2636 11.4406 48.2503 12.8974 45.2509 15.8111C42.2515 18.6391 40.7518 22.1528 40.7518 26.352C40.7518 28.6658 40.9661 31.1081 41.3946 33.679C41.7373 36.2499 42.5515 39.2495 43.8369 42.6773L6.81571 38.3066C6.9871 36.0785 7.15849 33.8075 7.32989 31.4937C7.41559 29.1799 7.45844 26.8234 7.45844 24.4239C7.45844 20.996 7.32989 17.568 7.07279 14.1401C6.73 10.6265 6.38722 7.02712 6.04443 3.34213L6.55861 2.44241L15.2997 4.49919C15.8139 9.72673 16.071 14.2259 16.071 17.9966C16.071 21.0817 15.9425 23.781 15.6854 26.0948C15.4283 28.3229 15.1712 30.6369 14.9141 33.0364L36.3813 35.6073C35.9528 34.4075 35.5243 32.6935 35.0958 30.4653C34.5816 28.2372 34.3245 25.7522 34.3245 23.0098C34.3245 18.2108 35.4386 14.0972 37.6667 10.6693C39.8949 7.24145 42.8086 4.62768 46.4078 2.82804C49.9214 0.942694 53.7778 9.3576e-06 57.977 9.17405e-06C63.3759 8.93805e-06 68.175 1.15698 72.3741 3.4708C76.5733 5.78463 79.9155 8.99828 82.4007 13.1117C84.8002 17.2252 86 21.9384 86 27.2517C86 29.6512 85.5715 32.3079 84.7145 35.2217C83.8576 38.0497 82.7006 40.4919 81.2438 42.5487C79.7012 44.5197 78.073 45.5054 76.359 45.5054C75.0736 45.5054 73.9595 44.9911 73.0169 43.9627C72.0742 42.9343 71.6028 41.8203 71.6028 40.6206C71.6028 39.2494 72.0313 38.0497 72.8883 37.0213C73.6596 35.9072 74.6022 34.9218 75.7163 34.0648C77.0018 33.1221 78.2872 32.0937 79.5727 30.9796C80.8581 29.7799 81.5009 27.9802 81.5009 25.5807C81.5009 23.0098 80.6011 20.6531 78.8014 18.5106C76.9161 16.3682 74.388 14.6544 71.2172 13.3689C67.9607 12.0834 64.3186 11.4406 60.2908 11.4406Z" fill="#FF7275"/>
<path d="M79.0572 73.364C77.1719 73.364 75.5865 72.7214 74.301 71.4359C72.9298 70.0647 72.2443 68.4364 72.2443 66.5511C72.2443 64.6658 72.9298 63.0804 74.301 61.795C75.5865 60.4238 77.1719 59.7382 79.0572 59.7382C80.9425 59.7382 82.5708 60.4238 83.9419 61.795C85.2274 63.0804 85.8701 64.6658 85.8701 66.5511C85.8701 68.4364 85.2274 70.0647 83.9419 71.4359C82.5708 72.7214 80.9425 73.364 79.0572 73.364Z" fill="#FF7275"/>
<path d="M58.2304 138.94C54.2027 138.94 50.3891 138.341 46.7899 137.141C43.1049 135.941 39.8912 134.184 37.1489 131.87C34.4066 129.471 32.2213 126.557 30.5931 123.129C28.9648 119.701 28.1507 115.888 28.1507 111.689C28.1507 106.804 29.0077 102.648 30.7216 99.2198C32.4356 95.7062 34.7494 92.9211 37.6631 90.8644C40.4911 88.722 43.6191 87.1794 47.0469 86.2367C50.3891 85.2084 53.7313 84.694 57.0735 84.694C61.0156 84.694 64.9148 85.3797 68.7712 86.7508C72.5419 88.122 75.8412 90.2216 78.6692 93.0496C80.8117 95.2778 82.5685 97.9771 83.9396 101.148C85.2251 104.233 85.8678 107.832 85.8678 111.946C85.8678 118.03 84.4967 123.086 81.7543 127.114C78.9263 131.056 75.4127 134.013 71.2136 135.984C66.9287 137.955 62.601 138.94 58.2304 138.94ZM32.6498 113.617C32.6498 117.473 33.7639 120.43 35.992 122.487C38.2201 124.543 41.0481 125.957 44.476 126.729C47.9039 127.5 51.5032 127.885 55.2739 127.885C57.7591 127.885 60.5014 127.586 63.5008 126.986C66.5002 126.386 69.3711 125.4 72.1134 124.029C74.77 122.658 76.9981 120.858 78.7978 118.63C80.5117 116.316 81.3687 113.488 81.3687 110.146C81.3687 108.09 80.8117 105.947 79.6976 103.719C78.5835 101.491 76.5697 99.6055 73.6559 98.0629C70.7422 96.5204 66.5859 95.749 61.187 95.749C51.9317 95.749 44.8617 97.3345 39.9769 100.505C35.0922 103.676 32.6498 108.047 32.6498 113.617Z" fill="#FF7275"/>
<path d="M18.7659 162.621C14.8238 162.621 11.9958 162.921 10.2819 163.521C8.56795 164.121 7.45388 165.235 6.9397 166.863C6.33982 168.492 5.91134 170.805 5.65424 173.805C5.22576 174.147 4.49733 174.319 3.46896 174.319C2.4406 174.319 1.75502 174.147 1.41223 173.805C1.49792 170.977 1.58362 168.234 1.66932 165.578C1.66932 162.921 1.66932 160.907 1.66932 159.536C1.66932 157.994 1.66932 155.894 1.66932 153.237C1.58362 150.495 1.49792 147.796 1.41223 145.139C1.75502 144.71 2.4406 144.496 3.46896 144.496C4.49733 144.496 5.22576 144.71 5.65424 145.139C5.91134 148.138 6.33982 150.452 6.9397 152.08C7.53958 153.709 8.69649 154.823 10.4104 155.423C12.1244 156.023 14.9095 156.322 18.7659 156.322L81.882 156.322C84.5386 156.322 85.8669 157.308 85.8669 159.279C85.8669 161.164 84.8385 162.878 82.7818 164.421L26.093 209.283C23.265 211.426 21.851 212.883 21.851 213.654C21.851 214.168 22.3652 214.468 23.3936 214.554C24.3362 214.639 25.9216 214.682 28.1498 214.682L67.4848 214.682C71.3412 214.682 74.1692 214.382 75.9689 213.782C77.6828 213.183 78.7969 212.069 79.3111 210.44C79.8252 208.812 80.2537 206.498 80.5965 203.499C80.9393 203.07 81.6249 202.856 82.6533 202.856C83.6816 202.856 84.41 203.07 84.8385 203.499C84.7528 206.155 84.6671 208.855 84.5814 211.597C84.5814 214.254 84.5814 216.31 84.5814 217.767C84.5814 219.31 84.5814 221.41 84.5814 224.066C84.6671 226.723 84.7528 229.422 84.8385 232.165C84.41 232.507 83.6816 232.679 82.6533 232.679C81.6249 232.679 80.9393 232.507 80.5965 232.165C80.2537 229.165 79.8252 226.851 79.3111 225.223C78.7112 223.595 77.5543 222.481 75.8403 221.881C74.0407 221.281 71.2555 220.981 67.4848 220.981L13.8812 220.981C12.1672 221.324 10.4104 222.438 8.6108 224.323C6.81116 226.123 5.82564 228.394 5.65425 231.136C5.22576 231.479 4.49733 231.65 3.46896 231.65C2.4406 231.65 1.75502 231.479 1.41223 231.136L1.66932 213.782L57.5868 169.691C62.3001 166.006 64.6568 163.949 64.6568 163.521C64.6568 163.092 64.314 162.835 63.6284 162.75C62.9429 162.664 62.0002 162.621 60.8004 162.621L18.7659 162.621Z" fill="#FF7275"/>
<path d="M72.8849 270.052C78.1124 273.223 81.5831 276.565 83.2971 280.079C85.011 283.506 85.868 287.148 85.868 291.005C85.868 299.06 83.2971 305.316 78.1552 309.773C72.9277 314.229 66.1576 316.457 57.845 316.457C51.7605 316.457 46.4901 315.172 42.0338 312.601C37.5776 309.944 34.1497 306.602 31.7502 302.574C29.3506 298.461 28.1509 294.304 28.1509 290.105C28.1509 283.935 29.3078 279.136 31.6216 275.708C33.9354 272.194 36.8492 270.438 40.3627 270.438C42.3338 270.438 43.7906 271.166 44.7333 272.623C45.5903 273.994 46.0188 275.365 46.0188 276.736C46.0188 278.107 45.676 279.222 44.9904 280.079C44.3048 280.935 43.1051 281.45 41.3911 281.621C39.8486 281.792 38.3917 282.135 37.0206 282.649C35.6494 283.078 34.5353 283.892 33.6784 285.092C32.8214 286.292 32.3929 288.177 32.3929 290.748C32.3929 294.947 34.4068 298.461 38.4346 301.289C42.3766 304.031 47.9041 305.402 55.017 305.402C59.9874 305.402 64.3151 304.631 68.0001 303.088C71.6851 301.46 74.556 299.36 76.6127 296.79C78.5837 294.133 79.5692 291.262 79.5692 288.177C79.5692 285.434 78.8837 282.735 77.5125 280.079C76.0557 277.336 73.9132 274.894 71.0852 272.751C71.2566 271.38 71.8565 270.48 72.8849 270.052Z" fill="#FF7275"/>
<path d="M38.5658 345.413C38.9086 345.413 39.2085 345.285 39.4656 345.028C39.7227 344.685 39.5085 344.342 38.8229 343.999C36.3377 342.543 33.9381 340.572 31.6243 338.086C29.3105 335.515 28.1536 332.73 28.1536 329.731C28.1536 326.989 28.882 325.017 30.3389 323.818C31.7957 322.618 33.124 322.018 34.3238 322.018C35.952 322.018 37.4517 322.661 38.8229 323.946C40.1083 325.146 40.7511 326.517 40.7511 328.06C40.7511 329.174 40.4083 330.116 39.7227 330.888C39.0371 331.573 38.3944 332.173 37.7945 332.687C37.1089 333.202 36.6805 333.759 36.5091 334.359C36.252 334.873 36.1234 335.43 36.1234 336.029C36.1234 336.544 36.5091 337.187 37.2803 337.958C38.0516 338.643 38.9514 339.372 39.9798 340.143C40.9225 340.829 41.7366 341.429 42.4222 341.943C43.5362 342.714 44.8217 343.442 46.2785 344.128C47.7354 344.728 49.3208 345.028 51.0348 345.028L68.9026 345.028C72.4162 345.028 74.9871 344.771 76.6154 344.256C78.1579 343.742 79.1435 342.757 79.5719 341.3C80.0004 339.757 80.3432 337.486 80.6003 334.487C80.9431 334.059 81.6287 333.844 82.657 333.844C83.6854 333.844 84.4138 334.059 84.8423 334.487C84.7566 336.715 84.6709 339.243 84.5852 342.071C84.5852 344.813 84.5852 347.47 84.5852 350.041C84.5852 352.612 84.5852 355.14 84.5852 357.625C84.6709 360.111 84.7566 362.467 84.8423 364.695C84.4138 365.038 83.6854 365.209 82.6571 365.209C81.6287 365.209 80.9431 365.038 80.6003 364.695C80.4289 362.039 80.129 360.025 79.7005 358.654C79.1863 357.283 78.1579 356.383 76.6154 355.954C74.9871 355.44 72.4162 355.183 68.9026 355.183L43.8362 355.183C41.351 355.183 39.5513 355.397 38.4373 355.826C37.2375 356.254 36.4234 357.068 35.9949 358.268C35.5664 359.468 35.2665 361.224 35.0951 363.538C34.6666 363.624 34.0667 363.71 33.2954 363.795C32.4384 363.881 31.8386 363.881 31.4958 363.795C30.8959 359.339 30.296 356.04 29.6961 353.897C29.0963 351.755 28.4535 349.784 27.7679 347.984C27.7679 347.47 27.8965 347.127 28.1536 346.956C28.325 346.785 28.5392 346.613 28.7963 346.442C29.4819 346.099 30.6388 345.885 32.267 345.799C33.8953 345.628 35.9949 345.499 38.5658 345.413Z" fill="#FF7275"/>
<path d="M74.4281 437.491C76.2277 438.177 77.556 438.091 78.413 437.234C79.1843 436.377 79.7413 435.135 80.0841 433.506C80.3412 431.878 80.5126 430.25 80.5983 428.622C80.9411 428.193 81.6267 427.979 82.655 427.979C83.6834 427.979 84.4118 428.193 84.8403 428.622C84.7546 431.021 84.6689 433.721 84.5832 436.72C84.5832 439.634 84.5832 442.419 84.5832 445.075C84.5832 447.046 84.5832 449.018 84.5832 450.989C84.6689 452.96 84.7546 454.802 84.8403 456.516C84.4118 456.859 83.6834 457.03 82.655 457.03C81.6267 457.03 80.9411 456.859 80.5983 456.516C80.4269 453.688 79.8699 451.246 78.9272 449.189C77.8988 447.132 75.4136 445.29 71.4715 443.661L2.57092 414.482C2.57092 413.625 2.31383 412.468 1.79964 411.011C1.19976 409.554 0.599881 408.354 -2.1689e-06 407.412L73.5283 380.931C76.6134 379.817 78.4987 378.232 79.1843 376.175C79.8699 374.118 80.3412 371.847 80.5983 369.362C80.9411 368.933 81.6267 368.719 82.655 368.719C83.6834 368.719 84.4118 368.933 84.8403 369.362C84.7546 371.59 84.6689 373.947 84.5832 376.432C84.5832 378.831 84.5832 381.359 84.5832 384.016C84.5832 386.501 84.5832 389.329 84.5832 392.5C84.6689 395.671 84.7546 398.456 84.8403 400.856C84.4118 401.199 83.6834 401.37 82.655 401.37C81.6267 401.37 80.9411 401.199 80.5983 400.856C80.3412 397.771 79.9556 395.242 79.4414 393.271C78.9272 391.215 77.556 390.572 75.3279 391.343L53.6036 398.799L53.6036 425.922C53.6036 427.465 53.775 428.536 54.1178 429.136C54.3749 429.65 54.932 430.078 55.7889 430.421L74.4281 437.491ZM48.2047 423.608L48.2047 400.856L13.2402 412.939L13.2402 413.71L46.5336 426.822C47.1335 427.079 47.562 426.95 47.8191 426.436C48.0762 425.922 48.2047 424.979 48.2047 423.608Z" fill="#FF7275"/>
</g>
<defs>
<clipPath id="clip0_931_1442">
<rect width="211" height="458" fill="white"/>
</clipPath>
</defs>
</svg>
